<svg xmlns="http://www.w3.org/2000/svg" width="164.258" height="43.378" viewBox="0 0 164.258 43.378">
  <g id="Logo" transform="translate(-0.001 0)">
    <path id="Path_113" data-name="Path 113" d="M11.194,46.459a6.209,6.209,0,0,0,1.6,1.83,6.246,6.246,0,0,0,2.38.469H37.569s-8.992-.283-20.913-7.164S0,27.069,0,27.069Z" transform="translate(0 -5.38)" fill="#7f8183"/>
    <path id="Path_114" data-name="Path 114" d="M58.084,23.992a3.783,3.783,0,0,0,0-4.6L46.889,0s4.247,7.926,4.247,21.689-4.247,21.689-4.247,21.689Z" transform="translate(-9.319 0)"/>
    <path id="Path_115" data-name="Path 115" d="M15.178,0A6.209,6.209,0,0,0,12.8.472a6.218,6.218,0,0,0-1.6,1.827L0,21.689s4.74-7.643,16.658-14.523S37.566,0,37.566,0Z" transform="translate(0 0)" fill="#cc2231"/>
    <path id="Path_116" data-name="Path 116" d="M79.32,15.322H70.07v2.046h3.415v8.723h2.421V17.369h3.415Z" transform="translate(-13.926 -3.045)" fill="#cc2231"/>
    <path id="Path_117" data-name="Path 117" d="M88,14.921a5.707,5.707,0,1,0,5.707,5.707v0A5.706,5.706,0,0,0,88,14.921m2.8,7.432a2.954,2.954,0,0,1-2.235,1.83,3.1,3.1,0,0,1-1.122,0,2.954,2.954,0,0,1-2.235-1.83,4.748,4.748,0,0,1,0-3.457,2.969,2.969,0,0,1,2.235-1.83,3.216,3.216,0,0,1,1.122,0A2.969,2.969,0,0,1,90.8,18.9a4.748,4.748,0,0,1,0,3.457" transform="translate(-16.355 -2.966)" fill="#cc2231"/>
    <path id="Path_118" data-name="Path 118" d="M96.586,15.322h2.851l2.667,4.63,2.665-4.63h2.851L103.313,22.1v3.985h-2.422V22.1Z" transform="translate(-19.196 -3.045)" fill="#cc2231"/>
    <path id="Path_119" data-name="Path 119" d="M110.412,20.626a5.707,5.707,0,1,1,5.708,5.707h0a5.706,5.706,0,0,1-5.707-5.7v0m5.707,3.606a3.458,3.458,0,0,0,.561-.05,2.965,2.965,0,0,0,2.235-1.83,4.728,4.728,0,0,0,0-3.458,2.965,2.965,0,0,0-2.235-1.83,3.3,3.3,0,0,0-1.122,0,2.964,2.964,0,0,0-2.237,1.83,4.728,4.728,0,0,0,0,3.458,2.964,2.964,0,0,0,2.237,1.83,3.458,3.458,0,0,0,.561.05" transform="translate(-21.944 -2.965)" fill="#cc2231"/>
    <path id="Path_120" data-name="Path 120" d="M144.134,23.712h-4.583l-.881,2.37h-2.692l4.361-10.769h3.01l4.361,10.769h-2.693Zm-.706-1.885-1.586-4.253-1.586,4.253Z" transform="translate(-27.025 -3.043)" fill="#cc2231"/>
    <path id="Path_121" data-name="Path 121" d="M134.568,15.322h-9.253v2.046h3.415v8.723h2.423V17.369h3.415Z" transform="translate(-24.906 -3.045)" fill="#cc2231"/>
    <path id="Path_122" data-name="Path 122" d="M162.3,34.595h2.013v5.142h1.43V34.595h2.014v-1.2h-5.454Z" transform="translate(-32.257 -6.637)"/>
    <path id="Path_123" data-name="Path 123" d="M173.71,34.595h2.011v5.142h1.429V34.595h2.011v-1.2h-5.449Z" transform="translate(-34.524 -6.637)"/>
    <path id="Path_124" data-name="Path 124" d="M190.3,34.595h2.011v5.142h1.43V34.595h2.011v-1.2H190.3Z" transform="translate(-37.821 -6.637)"/>
    <path id="Path_125" data-name="Path 125" d="M149.708,37.222l-2.724-3.832h-1.429v6.348h1.429V35.907l2.724,3.832h1.429V33.392h-1.429Z" transform="translate(-28.928 -6.636)"/>
    <rect id="Rectangle_33" data-name="Rectangle 33" width="1.429" height="6.348" transform="translate(113.703 26.753)"/>
    <rect id="Rectangle_34" data-name="Rectangle 34" width="1.429" height="6.348" transform="translate(136.627 26.753)"/>
    <path id="Path_126" data-name="Path 126" d="M198.513,33.393h0v6.348h5.2v-1.2H199.94V37.111h3.2V35.9h-3.2V34.595h3.708v-1.2Z" transform="translate(-39.454 -6.637)"/>
    <path id="Path_127" data-name="Path 127" d="M186.076,37.092c0,1.095-.359,1.6-1.362,1.6s-1.362-.506-1.362-1.6v-3.7h-1.427V37.62c0,1.409,1.224,2.312,2.792,2.312s2.79-.9,2.79-2.312V33.393h-1.429Z" transform="translate(-36.157 -6.637)"/>
    <path id="Path_128" data-name="Path 128" d="M156.928,35.863c-.78-.127-1.127-.4-1.127-.784,0-.486.437-.691,1.127-.691s1.122.16,1.122.821h1.522c0-1.442-1.167-2.058-2.644-2.058s-2.648.617-2.648,2.058c0,1.159,1.246,1.582,2.648,1.814,1.115.181,1.316.5,1.316.8,0,.74-.631.816-1.316.816s-1.316-.2-1.316-.945h-1.522c0,1.61,1.358,2.184,2.84,2.184s2.839-.574,2.839-2.184c0-1.229-1.463-1.611-2.839-1.833" transform="translate(-30.624 -6.589)"/>
    <path id="Path_129" data-name="Path 129" d="M80.017,37.1h3.2V35.9h-3.2V34.595h3.708v-1.2H78.588V39.74h5.2v-1.2H80.017Z" transform="translate(-15.619 -6.637)"/>
    <path id="Path_130" data-name="Path 130" d="M96.411,37.1h3.2V35.9h-3.2V34.595h3.707v-1.2H94.982V39.74h5.2v-1.2H96.411Z" transform="translate(-18.877 -6.637)"/>
    <path id="Path_131" data-name="Path 131" d="M133.905,33.393V35.9h-2.724V33.393h-1.428v6.348h1.429V37.108h2.724v2.633h1.429V33.393Z" transform="translate(-25.788 -6.637)"/>
    <path id="Path_132" data-name="Path 132" d="M75.458,35.28c0-1.168-.619-1.888-2.231-1.888H70.07v6.347H71.5V37.168h1.1l1.558,2.571h1.715l-1.638-2.7a1.633,1.633,0,0,0,1.22-1.763m-2.1.683H71.5V34.6h1.855a.683.683,0,0,1,0,1.362" transform="translate(-13.926 -6.637)"/>
    <path id="Path_133" data-name="Path 133" d="M117.606,35.28c0-1.168-.62-1.888-2.233-1.888h-3.155v6.347h1.427V37.168h1.106l1.558,2.571h1.713l-1.636-2.7a1.633,1.633,0,0,0,1.22-1.763m-2.1.683h-1.856V34.6H115.5a.683.683,0,0,1,0,1.362" transform="translate(-22.303 -6.637)"/>
    <path id="Path_134" data-name="Path 134" d="M123.229,34.421a1.852,1.852,0,0,1,.333-.03,1.8,1.8,0,0,1,.328.03,1.74,1.74,0,0,1,1.271.978h1.57a3.365,3.365,0,1,0,0,2.244h-1.57a1.742,1.742,0,0,1-1.271.978,1.8,1.8,0,0,1-.328.028,1.851,1.851,0,0,1-.333-.028,1.748,1.748,0,0,1-1.318-1.078,2.816,2.816,0,0,1,0-2.039,1.743,1.743,0,0,1,1.318-1.078" transform="translate(-23.887 -6.589)"/>
    <path id="Path_135" data-name="Path 135" d="M89.15,35.863c-.78-.127-1.126-.4-1.126-.784,0-.486.437-.691,1.126-.691s1.126.16,1.126.821H91.8c0-1.442-1.165-2.058-2.648-2.058S86.5,33.769,86.5,35.21c0,1.159,1.246,1.582,2.648,1.814,1.116.181,1.316.5,1.316.8,0,.74-.629.816-1.316.816s-1.316-.2-1.316-.945H86.311c0,1.61,1.357,2.184,2.839,2.184s2.839-.574,2.839-2.184c0-1.229-1.461-1.611-2.839-1.833" transform="translate(-17.154 -6.589)"/>
    <path id="Path_136" data-name="Path 136" d="M106.769,33.391h-1.776l-2.569,6.345h1.585l.52-1.394h2.7l.52,1.394h1.591Zm-1.82,3.838.935-2.508.935,2.508Z" transform="translate(-20.356 -6.636)"/>
  </g>
</svg>
