<?xml version="1.0" encoding="iso-8859-1"?>
<!-- Uploaded to: SVG Repo, www.svgrepo.com, Generator: SVG Repo Mixer Tools -->
<svg fill="#000000" height="800px" width="800px" version="1.1" id="Layer_1" xmlns="http://www.w3.org/2000/svg" xmlns:xlink="http://www.w3.org/1999/xlink" 
	 viewBox="0 0 512 512" xml:space="preserve">
<g>
	<g>
		<path d="M256,0C114.842,0,0,114.863,0,256c0,0.001,0,0.002,0,0.004v0.001v0.001C0.003,397.122,114.856,512,256,512
			c141.126,0,255.997-114.865,256-255.993v-0.001v-0.001c0-0.001,0-0.002,0-0.004C512,114.757,397.053,0,256,0z M175.112,48.607
			c-14.091,19.219-26.061,43.439-35.234,71.394c-13.926-6.262-27.39-13.686-40.288-22.237
			C120.983,76.613,146.626,59.756,175.112,48.607z M77.497,123.136c16.957,11.583,34.806,21.415,53.373,29.403
			c-6.13,26.715-9.924,55.92-10.935,86.77H34.016C37.242,195.976,52.929,156.059,77.497,123.136z M34.016,272.589h85.919
			c1.141,34.798,5.823,67.617,13.402,97.015c-17.368,7.294-34.127,16.176-50.116,26.59C55.38,361.946,37.49,319.191,34.016,272.589z
			 M106.604,420.892c11.788-7.322,24.016-13.738,36.617-19.204c8.668,23.886,19.454,44.742,31.89,61.706
			C149.676,453.439,126.505,438.94,106.604,420.892z M239.304,475.333c-19.243-7.491-37.905-27.595-52.94-57.663
			c-4.297-8.594-8.201-17.774-11.708-27.438c20.892-6.23,42.546-10.037,64.648-11.312V475.333z M239.304,345.491
			c-25.425,1.31-50.336,5.605-74.344,12.778c-6.586-26.448-10.549-55.517-11.62-85.679h85.964V345.491z M239.304,239.309h-85.964
			c0.931-26.247,4.055-51.582,9.188-75.145c24.727,7.6,50.45,12.137,76.776,13.486V239.309z M239.304,144.217
			c-23.361-1.339-46.18-5.485-68.114-12.331c4.336-13.421,9.404-26.013,15.175-37.555c15.034-30.069,33.695-50.174,52.939-57.663
			V144.217z M412.407,97.761c-12.898,8.552-26.36,15.975-40.286,22.237c-9.174-27.954-21.143-52.173-35.233-71.391
			C365.372,59.756,391.013,76.613,412.407,97.761z M272.584,36.667c19.243,7.491,38.016,27.595,53.051,57.663
			c5.771,11.542,10.839,24.133,15.174,37.553c-21.934,6.846-44.865,10.994-68.225,12.334V36.667z M272.584,177.648
			c26.326-1.35,52.159-5.887,76.886-13.487c5.134,23.564,8.259,48.899,9.189,75.147h-86.075V177.648z M272.584,272.589h86.075
			c-1.07,30.162-5.034,59.233-11.62,85.681c-24.007-7.171-49.03-11.468-74.455-12.779V272.589z M272.584,475.333V378.92
			c22.102,1.276,43.866,5.083,64.758,11.314c-3.507,9.663-7.411,18.842-11.707,27.435
			C310.601,447.738,291.828,467.843,272.584,475.333z M336.887,463.392c12.437-16.962,23.223-37.818,31.89-61.702
			c12.6,5.466,24.828,11.883,36.614,19.203C385.49,438.94,362.32,453.438,336.887,463.392z M428.776,396.198
			c-15.989-10.415-32.748-19.296-50.115-26.591c7.58-29.399,12.262-62.219,13.403-97.018h85.919
			C474.51,319.193,456.619,361.949,428.776,396.198z M392.065,239.31v-0.001c-1.011-30.85-4.806-60.056-10.936-86.772
			c18.567-7.989,36.414-17.821,53.37-29.404c24.569,32.923,40.257,72.842,43.484,116.177H392.065z"/>
	</g>
</g>
</svg>